<svg xmlns="http://www.w3.org/2000/svg" viewBox="0 0 54.96 24"><defs><style>.cls-1{fill:lime;}</style></defs><g id="Layer_2" data-name="Layer 2"><g id="Layer_1-2" data-name="Layer 1"><path class="cls-1" d="M35,11.42V.55h0a.6.6,0,0,0-1.2.06h0V11.69h0v.66h0v8.18h0l-7-19.31L26.47.47h0A.74.74,0,0,0,25.79,0a.72.72,0,0,0-.72.7h0V18.87h0v.06a3.93,3.93,0,0,1-4,3.87,4,4,0,0,1-3.77-2.57h0l-1.12-3.07-5.81-16L10.21.78,10.15.61h0L10.1.48h0A.92.92,0,0,0,8.43.61h0l-.22.59-7,19.26h0V.62A.6.6,0,0,0,.57,0,.59.59,0,0,0,0,.61V23.3H0A.7.7,0,0,0,.63,24H.77a.66.66,0,0,0,.57-.43h0L5.19,13h0L9.05,23.59h0a.6.6,0,0,0,1.16-.2.53.53,0,0,0,0-.13h0l-.05-.14-3.9-10.7h6.91l2.88,7.9.11.3.1.28h0a5.1,5.1,0,0,0,2.14,2.38h0a5.31,5.31,0,0,0,2.66.71,5.24,5.24,0,0,0,4-1.84A4.94,4.94,0,0,0,26.26,19h0V3.43h0L33.6,23.56h0A.71.71,0,0,0,35,23.3h0V17.56h0A10.53,10.53,0,0,0,44.36,24C50.21,24,55,18.63,55,12A12.21,12.21,0,0,0,49,1.2,9.6,9.6,0,0,0,44.36,0H38.08a.59.59,0,0,0-.57.59.59.59,0,0,0,.57.59h6.29c5.19,0,9.39,4.86,9.39,10.83,0,5.18-3.86,10.88-9.4,10.82-4.82-.05-9.3-4.42-9.43-10.16,0,0,0-.06.06-.06l8.9,0h0a.6.6,0,0,0,.6-.6.59.59,0,0,0-.56-.6H35A.05.05,0,0,1,35,11.42ZM5.84,11.23l3.4-9.36,0-.12,0,.12,3.41,9.36Z"/></g></g></svg>